 http://desibbrg.org/images/66952052392581364616.gif 
http://desibbrg.org/images/93842156907434966761.png 
http://desibbrg.org/images/96978146493329754576.png 
http://desibbrg.org/images/31594358476702336897.png 
http://desibbrg.org/images/37528762652231079561.png

Media Info - 
Video
ID : 1
Format : AVC
Format/Info : Advanced Video Codec
Format profile : High@L4.1
Format settings, CABAC : Yes
Format settings, ReFrames : 5 frames
Muxing mode : Header stripping
Codec ID : V_MPEG4/ISO/AVC
Duration : 2h 9mn
Bit rate : 2 419 Kbps
Width : 1 280 pixels
Height : 576 pixels
Display aspect ratio : 2.222
Frame rate : 24.000 fps
Color space : YUV
Chroma subsampling : 4:2:0
Bit depth : 8 bits
Scan type : Progressive
Bits/(Pixel*Frame) : 0.137
Stream size : 2.14 GiB (84%)
Writing library : x264 core 114 r1924 08d04a4
Language : English
Default : Yes
Forced : No
Color primaries : BT.709-5, BT.1361, IEC 61966-2-4, SMPTE RP177
Transfer characteristics : BT.709-5, BT.1361
Matrix coefficients : BT.709-5, BT.1361, IEC 61966-2-4 709, SMPTE RP177

Audio
ID : 2
Format : AC-3
Format/Info : Audio Coding 3
Mode extension : CM (complete main)
Muxing mode : Header stripping
Codec ID : A_AC3
Duration : 2h 9mn
Bit rate mode : Constant
Bit rate : 384 Kbps
Channel(s) : 6 channels
Channel positions : Front: L C R, Side: L R, LFE
Sampling rate : 48.0 KHz
Bit depth : 16 bits
Compression mode : Lossy
Stream size : 356 MiB (14%)
Default : Yes
Forced : No

Ripper : NhaNc3

Seeding 24x7... Extreme Seeding...


Enjoy!
